<svg width="655" height="380" viewBox="0 0 655 380" fill="none" xmlns="http://www.w3.org/2000/svg">
<g filter="url(#filter0_i_449389_1218)">
<path d="M325.589 120.624C324.824 119.859 324.351 118.801 324.346 117.635L324.345 83.5529C324.345 75.5414 328.058 67.9888 334.288 63.3608C345.404 55.0792 349.254 40.4187 343.646 27.6943C338.462 16.0292 325.583 8.74599 312.979 10.4084C303.358 11.6812 295.22 17.2242 290.634 25.6133C286.646 32.9375 280.343 38.8454 272.893 42.2537C270.765 43.2224 268.265 42.2897 267.291 40.167C266.322 38.0386 267.255 35.527 269.384 34.5582C275.094 31.9455 280.135 27.2156 283.214 21.5651C289.097 10.7789 299.543 3.65765 311.866 2.02494C328.124 -0.121833 344.734 9.23036 351.371 24.2974C358.575 40.6507 353.631 59.5035 339.334 70.1519C335.244 73.1896 332.799 78.2058 332.799 83.5515L332.799 117.633C332.799 119.965 330.904 121.86 328.572 121.86C327.4 121.862 326.348 121.384 325.589 120.624Z" fill="#828282"/>
<path d="M29.6184 348.21V365.122H627.528V348.21H29.6184Z" fill="#F5C294"/>
<path d="M265.156 153.719C258.393 171.89 244.175 186.313 227.086 195.484L67.063 281.341C64.1504 282.901 62.3516 286.028 62.6563 289.311C63.0983 294.071 60.8263 298.878 56.4196 301.431C52.2222 303.87 47.223 303.607 43.3848 301.203C40.234 299.236 36.1497 299.84 33.3877 302.328C19.3241 315.004 9.70956 332.128 6.56505 351.202C5.56096 357.289 4.80721 363.412 4.2691 369.547C3.65321 376.548 11.3967 381.218 17.3039 377.415L328.567 177.32L328.567 109.67C299.514 109.676 274.735 127.997 265.156 153.719Z" fill="#DFAE82"/>
<path d="M652.816 369.678C652.26 362.784 651.429 355.914 650.233 349.085C647.04 330.801 637.491 314.519 623.876 302.351C620.982 299.768 616.851 299.451 613.502 301.413C609.669 303.655 604.779 303.822 600.683 301.401C596.33 298.83 594.1 294.064 594.531 289.352C594.835 286.058 593.048 282.918 590.136 281.358L430.059 195.472C412.976 186.306 398.758 171.884 391.995 153.713C382.416 127.99 357.638 109.67 328.579 109.67L328.579 177.319L639.8 377.386C645.647 381.153 653.378 376.614 652.816 369.678Z" fill="#DFAE82"/>
</g>
<defs>
<filter id="filter0_i_449389_1218" x="0" y="0" width="659" height="384" filterUnits="userSpaceOnUse" color-interpolation-filters="sRGB">
<feFlood flood-opacity="0" result="BackgroundImageFix"/>
<feBlend mode="normal" in="SourceGraphic" in2="BackgroundImageFix" result="shape"/>
<feColorMatrix in="SourceAlpha" type="matrix" values="0 0 0 0 0 0 0 0 0 0 0 0 0 0 0 0 0 0 127 0" result="hardAlpha"/>
<feOffset dx="5" dy="4"/>
<feGaussianBlur stdDeviation="2"/>
<feComposite in2="hardAlpha" operator="arithmetic" k2="-1" k3="1"/>
<feColorMatrix type="matrix" values="0 0 0 0 0 0 0 0 0 0 0 0 0 0 0 0 0 0 0.25 0"/>
<feBlend mode="normal" in2="shape" result="effect1_innerShadow_449389_1218"/>
</filter>
</defs>
</svg>
